# xmcd CD database file
#
# Track frame offsets:
#	150
#	6276
#	23920
#	51508
#	52747
#	74568
#	95251
#	98305
#	117164
#	120402
#	144619
#	147779
#	184915
#	191511
#	193505
#	220114
#	243343
#
# Disc length: 3562 seconds
#
# Revision: 0
# Processed by: cddbd v1.5.2PL0 Copyright (c) Steve Scherf et al.
# Submitted via: CDex 1.51
#
DISCID=e90de811
DTITLE=Daniele Sepe und Rote Jazz Fraktion - Suonarne 1 x educarne 100
DYEAR=2006
DGENRE=Jazz
TTITLE0=Sintonia n.1 in DO mag "il pendolo"
TTITLE1=Peaches en regalia
TTITLE2=Come in coma
TTITLE3=Sintonia n.2 in RE mag
TTITLE4=Radisol
TTITLE5=Il mondo visto dalla panchina
TTITLE6=Sintonia n.3 in MI b mag "il gabbiano"
TTITLE7=Let your past live
TTITLE8=Sintonia n.4 in SI b mag "l'incendio di Milano"
TTITLE9=Guzzi Falcone
TTITLE10=Sintonia n.5 in DO min "Epica"
TTITLE11=Zut/a/traverso
TTITLE12=Ever green
TTITLE13=Sintonia n.6 in FA mag "Cane nero"
TTITLE14=Napoli centrale
TTITLE15=Bianco and Nero
TTITLE16=Hasta siempre
EXTD=YEAR: 2006
EXTT0=
EXTT1=
EXTT2=
EXTT3=
EXTT4=
EXTT5=
EXTT6=
EXTT7=
EXTT8=
EXTT9=
EXTT10=
EXTT11=
EXTT12=
EXTT13=
EXTT14=
EXTT15=
EXTT16=
PLAYORDER=
